{
    "asset": {
        "version": "2.0",
        "generator": "Open Asset Import Library (assimp v3.1.256107357)"
    },
    "accessors": [
        {
            "bufferView": 0,
            "byteOffset": 0,
            "componentType": 5126,
            "count": 24,
            "type": "VEC3",
            "max": [
                1.0,
                1.000000238418579,
                0.9999999403953552
            ],
            "min": [
                0.42938995361328127,
                -1.0000007152557374,
                -1.0
            ]
        },
        {
            "bufferView": 1,
            "byteOffset": 0,
            "componentType": 5126,
            "count": 24,
            "type": "VEC3",
            "max": [
                1.0,
                1.0,
                1.0
            ],
            "min": [
                -1.0,
                -1.0,
                -1.0
            ]
        },
        {
            "bufferView": 2,
            "byteOffset": 0,
            "componentType": 5126,
            "count": 24,
            "type": "VEC4",
            "max": [
                1.0,
                1.0,
                1.0,
                1.0
            ],
            "min": [
                0.0,
                0.0,
                0.0,
                0.0
            ]
        },
        {
            "bufferView": 3,
            "byteOffset": 0,
            "componentType": 5126,
            "count": 24,
            "type": "VEC2",
            "max": [
                0.875,
                1.0
            ],
            "min": [
                0.125,
                0.0
            ]
        },
        {
            "bufferView": 4,
            "byteOffset": 0,
            "componentType": 5123,
            "count": 36,
            "type": "SCALAR",
            "max": [
                23.0
            ],
            "min": [
                0.0
            ]
        },
        {
            "bufferView": 5,
            "byteOffset": 0,
            "componentType": 5126,
            "count": 184,
            "type": "VEC3",
            "max": [
                0.31148776412010195,
                0.8747376203536987,
                0.6813766360282898
            ],
            "min": [
                -0.36280083656311037,
                0.00877922773361206,
                -0.6319208741188049
            ]
        },
        {
            "bufferView": 6,
            "byteOffset": 0,
            "componentType": 5126,
            "count": 184,
            "type": "VEC3",
            "max": [
                0.9999999403953552,
                0.9466992616653442,
                0.9999999403953552
            ],
            "min": [
                -0.9999999403953552,
                -0.9999999403953552,
                -0.9999999403953552
            ]
        },
        {
            "bufferView": 7,
            "byteOffset": 0,
            "componentType": 5126,
            "count": 184,
            "type": "VEC4",
            "max": [
                1.0,
                1.0,
                1.0,
                1.0
            ],
            "min": [
                -1.0,
                -1.0,
                -1.0,
                -1.0
            ]
        },
        {
            "bufferView": 8,
            "byteOffset": 0,
            "componentType": 5126,
            "count": 184,
            "type": "VEC2",
            "max": [
                0.8883920907974243,
                1.0
            ],
            "min": [
                0.0,
                0.375
            ]
        },
        {
            "bufferView": 9,
            "byteOffset": 0,
            "componentType": 5123,
            "count": 288,
            "type": "SCALAR",
            "max": [
                183.0
            ],
            "min": [
                0.0
            ]
        },
        {
            "bufferView": 10,
            "byteOffset": 0,
            "componentType": 5126,
            "count": 732,
            "type": "VEC3",
            "max": [
                0.31148776412010195,
                0.8747376203536987,
                0.6883872747421265
            ],
            "min": [
                -0.36280083656311037,
                0.00877922773361206,
                -0.6389315128326416
            ]
        },
        {
            "bufferView": 11,
            "byteOffset": 0,
            "componentType": 5126,
            "count": 732,
            "type": "VEC3",
            "max": [
                0.9999999403953552,
                0.9999999403953552,
                0.9999999403953552
            ],
            "min": [
                -0.9999999403953552,
                -0.9999999403953552,
                -0.9999999403953552
            ]
        },
        {
            "bufferView": 12,
            "byteOffset": 0,
            "componentType": 5126,
            "count": 732,
            "type": "VEC4",
            "max": [
                1.0,
                1.0,
                1.0,
                1.0
            ],
            "min": [
                -1.0,
                -1.0,
                -1.0,
                -1.0
            ]
        },
        {
            "bufferView": 13,
            "byteOffset": 0,
            "componentType": 5126,
            "count": 732,
            "type": "VEC2",
            "max": [
                0.8883920907974243,
                0.875
            ],
            "min": [
                0.125,
                0.375
            ]
        },
        {
            "bufferView": 14,
            "byteOffset": 0,
            "componentType": 5123,
            "count": 1308,
            "type": "SCALAR",
            "max": [
                731.0
            ],
            "min": [
                0.0
            ]
        }
    ],
    "buffers": [
        {
            "byteLength": 48384,
            "uri": "chest.bin"
        }
    ],
    "bufferViews": [
        {
            "buffer": 0,
            "byteOffset": 0,
            "byteLength": 288,
            "target": 34962
        },
        {
            "buffer": 0,
            "byteOffset": 288,
            "byteLength": 288,
            "target": 34962
        },
        {
            "buffer": 0,
            "byteOffset": 576,
            "byteLength": 384,
            "target": 34962
        },
        {
            "buffer": 0,
            "byteOffset": 960,
            "byteLength": 192,
            "target": 34962
        },
        {
            "buffer": 0,
            "byteOffset": 1152,
            "byteLength": 72,
            "target": 34963
        },
        {
            "buffer": 0,
            "byteOffset": 1224,
            "byteLength": 2208,
            "target": 34962
        },
        {
            "buffer": 0,
            "byteOffset": 3432,
            "byteLength": 2208,
            "target": 34962
        },
        {
            "buffer": 0,
            "byteOffset": 5640,
            "byteLength": 2944,
            "target": 34962
        },
        {
            "buffer": 0,
            "byteOffset": 8584,
            "byteLength": 1472,
            "target": 34962
        },
        {
            "buffer": 0,
            "byteOffset": 10056,
            "byteLength": 576,
            "target": 34963
        },
        {
            "buffer": 0,
            "byteOffset": 10632,
            "byteLength": 8784,
            "target": 34962
        },
        {
            "buffer": 0,
            "byteOffset": 19416,
            "byteLength": 8784,
            "target": 34962
        },
        {
            "buffer": 0,
            "byteOffset": 28200,
            "byteLength": 11712,
            "target": 34962
        },
        {
            "buffer": 0,
            "byteOffset": 39912,
            "byteLength": 5856,
            "target": 34962
        },
        {
            "buffer": 0,
            "byteOffset": 45768,
            "byteLength": 2616,
            "target": 34963
        }
    ],
    "materials": [
        {
            "name": "chest wood",
            "pbrMetallicRoughness": {
                "baseColorFactor": [
                    0.16264405846595765,
                    0.067461296916008,
                    0.0499127060174942,
                    1.0
                ],
                "metallicFactor": 0.0,
                "roughnessFactor": 0.5
            },
            "doubleSided": true
        },
        {
            "name": "chest braces",
            "pbrMetallicRoughness": {
                "baseColorFactor": [
                    0.3891040086746216,
                    0.3891040086746216,
                    0.3891040086746216,
                    1.0
                ],
                "metallicFactor": 0.778181791305542,
                "roughnessFactor": 0.5
            },
            "doubleSided": true
        },
        {
            "name": "DefaultMaterial"
        }
    ],
    "meshes": [
        {
            "name": "Cube.001",
            "primitives": [
                {
                    "mode": 4,
                    "material": 2,
                    "indices": 4,
                    "attributes": {
                        "POSITION": 0,
                        "NORMAL": 1,
                        "TANGENT": 2,
                        "TEXCOORD_0": 3
                    }
                }
            ]
        },
        {
            "name": "Cube.122-0",
            "primitives": [
                {
                    "mode": 4,
                    "material": 0,
                    "indices": 9,
                    "attributes": {
                        "POSITION": 5,
                        "NORMAL": 6,
                        "TANGENT": 7,
                        "TEXCOORD_0": 8
                    }
                },
                {
                    "mode": 4,
                    "material": 1,
                    "indices": 14,
                    "attributes": {
                        "POSITION": 10,
                        "NORMAL": 11,
                        "TANGENT": 12,
                        "TEXCOORD_0": 13
                    }
                }
            ]
        }
    ],
    "nodes": [
        {
            "name": "ROOT",
            "children": [
                1,
                2
            ]
        },
        {
            "name": "lock",
            "matrix": [
                0.06098833680152893,
                0.0,
                0.0,
                0.0,
                0.0,
                0.06098833680152893,
                0.0,
                0.0,
                0.0,
                0.0,
                0.06098833680152893,
                0.0,
                -0.42094627022743227,
                0.569202721118927,
                0.02661973610520363,
                1.0
            ],
            "mesh": 0
        },
        {
            "name": "chest",
            "mesh": 1
        }
    ],
    "scenes": [
        {
            "nodes": [
                0
            ]
        }
    ],
    "scene": 0
}